<svg width="49" height="49" viewBox="0 0 49 49" fill="none" xmlns="http://www.w3.org/2000/svg">
<path d="M13.6496 37.5156L20.1681 30.9971L18.0029 28.8319L11.4844 35.3504L10.2701 34.1362C9.98294 33.8491 9.59353 33.6878 9.1875 33.6878C8.78147 33.6878 8.39206 33.8491 8.10491 34.1362L1.97991 40.2612C1.69284 40.5483 1.53158 40.9377 1.53158 41.3438C1.53158 41.7498 1.69284 42.1392 1.97991 42.4263L6.57366 47.0201C6.86081 47.3072 7.25022 47.4684 7.65625 47.4684C8.06228 47.4684 8.45169 47.3072 8.73884 47.0201L14.8638 40.8951C15.1509 40.6079 15.3122 40.2185 15.3122 39.8125C15.3122 39.4065 15.1509 39.0171 14.8638 38.7299L13.6496 37.5156ZM7.65625 43.7723L5.22769 41.3438L9.1875 37.3839L11.6161 39.8125L7.65625 43.7723Z" fill="#545454"/>
<path d="M36.75 45.9375C34.3142 45.9347 31.979 44.9658 30.2566 43.2434C28.5342 41.5211 27.5653 39.1858 27.5625 36.75C27.5632 35.9496 27.6713 35.1528 27.8841 34.3812L14.6204 21.116C13.8482 21.3287 13.0509 21.4368 12.25 21.4375C10.7531 21.4435 9.27758 21.0822 7.95281 20.3852C6.62805 19.6882 5.4945 18.6769 4.65154 17.4399C3.80858 16.2029 3.28196 14.778 3.11784 13.2901C2.95372 11.8022 3.15713 10.2968 3.71022 8.90577L4.56466 6.72987L9.63616 11.8014C9.92758 12.0796 10.315 12.2349 10.718 12.2349C11.1209 12.2349 11.5084 12.0796 11.7998 11.8014C11.9421 11.6593 12.055 11.4905 12.1321 11.3048C12.2091 11.119 12.2488 10.9199 12.2488 10.7188C12.2488 10.5177 12.2091 10.3185 12.1321 10.1328C12.055 9.94701 11.9421 9.77826 11.7998 9.63618L6.72984 4.56162L8.90881 3.70871C10.2998 3.15661 11.8049 2.95402 13.2924 3.11869C14.7798 3.28336 16.2042 3.81027 17.4407 4.65326C18.6772 5.49624 19.6882 6.62959 20.385 7.954C21.0818 9.27842 21.4432 10.7535 21.4375 12.25C21.4368 13.0505 21.3287 13.8472 21.1159 14.6189L34.3812 27.8841C35.1529 27.6716 35.9496 27.5635 36.75 27.5625C38.2469 27.5565 39.7224 27.9179 41.0472 28.6148C42.3719 29.3118 43.5055 30.3231 44.3485 31.5601C45.1914 32.7971 45.718 34.2221 45.8822 35.71C46.0463 37.1978 45.8429 38.7033 45.2898 40.0943L44.4369 42.2702L39.3638 37.1987C39.0724 36.9204 38.685 36.7651 38.282 36.7651C37.8791 36.7651 37.4916 36.9204 37.2002 37.1987C37.0578 37.3407 36.9447 37.5093 36.8676 37.695C36.7904 37.8807 36.7506 38.0799 36.7505 38.281C36.7503 38.4821 36.7898 38.6812 36.8667 38.867C36.9436 39.0529 37.0564 39.2217 37.1987 39.3639L42.2717 44.4369L40.0943 45.2913C39.0299 45.7147 37.8954 45.9339 36.75 45.9375V45.9375ZM15.4074 17.5726L31.4258 33.5911L31.0599 34.5251C30.7012 35.4216 30.5611 36.3906 30.6509 37.352C30.7407 38.3135 31.058 39.2397 31.5765 40.0543C32.095 40.8688 32.7999 41.5484 33.6329 42.0367C34.4659 42.525 35.4031 42.8082 36.3672 42.8628L35.0335 41.5306C34.6068 41.104 34.2684 40.5976 34.0375 40.0402C33.8066 39.4828 33.6877 38.8854 33.6877 38.282C33.6877 37.6787 33.8066 37.0813 34.0375 36.5239C34.2684 35.9665 34.6068 35.4601 35.0335 35.0335C35.9086 34.1979 37.072 33.7316 38.282 33.7316C39.492 33.7316 40.6554 34.1979 41.5306 35.0335L42.8628 36.3672C42.8079 35.4031 42.5246 34.4659 42.036 33.6329C41.5475 32.7999 40.8679 32.0951 40.0532 31.5766C39.2385 31.0581 38.3122 30.7408 37.3507 30.651C36.3892 30.5612 35.4202 30.7013 34.5236 31.0599L33.591 31.4259L17.5742 15.409L17.9417 14.4749C18.3003 13.5783 18.4405 12.6092 18.3506 11.6476C18.2607 10.6861 17.9432 9.7598 17.4246 8.94519C16.9059 8.13059 16.2008 7.4511 15.3676 6.96285C14.5344 6.4746 13.597 6.19162 12.6328 6.13727L13.965 7.46946C14.3917 7.89604 14.7301 8.40248 14.961 8.95987C15.1919 9.51726 15.3108 10.1147 15.3108 10.718C15.3108 11.3213 15.1919 11.9187 14.961 12.4761C14.7301 13.0335 14.3917 13.54 13.965 13.9666C13.0899 14.8022 11.9264 15.2684 10.7165 15.2684C9.50647 15.2684 8.34302 14.8022 7.46791 13.9666L6.13572 12.6328C6.19029 13.5969 6.47345 14.5341 6.96179 15.3671C7.45014 16.2001 8.12966 16.905 8.94423 17.4235C9.7588 17.942 10.685 18.2593 11.6464 18.3491C12.6079 18.439 13.5768 18.2988 14.4734 17.9401L15.4074 17.5726Z" fill="#545454"/>
<path d="M44.5946 4.36412C43.7195 3.52851 42.556 3.06226 41.346 3.06226C40.1361 3.06226 38.9726 3.52851 38.0975 4.36412L26.6437 15.8179L28.8089 17.9831L40.2627 6.5293C40.5544 6.25092 40.9421 6.09559 41.3453 6.09559C41.7485 6.09559 42.1362 6.25092 42.4279 6.5293C42.7142 6.81685 42.8749 7.20611 42.8749 7.6119C42.8749 8.01768 42.7142 8.40694 42.4279 8.69449L30.9741 20.1482L33.1393 22.315L44.5931 10.8612C45.4536 9.99909 45.9369 8.83076 45.9369 7.61266C45.9369 6.39456 45.4536 5.22623 44.5931 4.36412H44.5946Z" fill="#545454"/>
</svg>
