<svg width="53" height="53" viewBox="0 0 53 53" fill="none" xmlns="http://www.w3.org/2000/svg">
<path d="M17.1367 25.4179L13.6696 21.9508L21.9508 13.6696L25.4179 17.1367L34.5604 8.01624C36.2829 6.29374 39.0875 6.29374 40.81 8.01624L45.0058 12.2121C46.7283 13.9346 46.7283 16.7392 45.0058 18.4617L35.8854 27.5821L46.375 38.0937V46.375H38.0938L27.5821 35.8633L18.4617 44.9837C16.3638 47.0817 13.5371 46.3087 12.2121 44.9837L8.01625 40.7879C6.29375 39.0654 6.29375 36.2608 8.01625 34.5383L17.1367 25.4179V25.4179ZM32.7275 24.4462L41.87 15.3258L37.6963 11.13L34.8917 13.9346L37.4975 16.5625L34.3837 19.6762L31.7558 17.0483L28.5538 20.2504L32.7275 24.4462V24.4462ZM15.3258 41.87L24.4463 32.7496L20.2504 28.5537L17.0483 31.7558L19.6763 34.3837L16.5625 37.4975L13.9346 34.8696L11.13 37.6742L15.3258 41.87V41.87ZM7.26542 15.5467C7.0607 15.3424 6.89828 15.0997 6.78746 14.8325C6.67665 14.5654 6.61961 14.279 6.61961 13.9898C6.61961 13.7006 6.67665 13.4142 6.78746 13.147C6.89828 12.8799 7.0607 12.6372 7.26542 12.4329L12.4329 7.26541C13.4708 6.22749 14.9063 6.62499 15.5467 7.26541L19.5879 11.3067L11.3067 19.5879L7.26542 15.5467V15.5467Z" fill="#545454"/>
</svg>
