<svg width="49" height="49" viewBox="0 0 49 49" fill="none" xmlns="http://www.w3.org/2000/svg">
<g clip-path="url(#clip0_18_63)">
<path d="M23.3771 49H36.75C38.9958 49 40.9184 48.2004 42.5177 46.601C44.117 45.0017 44.9167 43.0792 44.9167 40.8333V12.5563C44.9167 11.1271 44.4233 9.9191 43.4365 8.93229C42.4496 7.94549 41.2417 7.45208 39.8125 7.45208H39.3021C39.1319 7.45208 38.9618 7.48611 38.7917 7.55417V6.94167C38.7917 5.54653 38.2983 4.34671 37.3115 3.34221C36.3246 2.33907 35.1167 1.8375 33.6875 1.8375C33.3132 1.8375 32.9729 1.86268 32.6667 1.91304C32.3604 1.96476 32.0542 2.07569 31.7479 2.24583C31.2715 1.56528 30.676 1.02083 29.9615 0.6125C29.2469 0.204167 28.4472 0 27.5625 0C26.3715 0 25.2227 0.374306 24.1162 1.12292C23.0109 1.87153 22.4583 3.09653 22.4583 4.79792C22.2882 4.72986 22.1181 4.69583 21.9479 4.69583H21.4375C20.0083 4.69583 18.8003 5.18924 17.8135 6.17604C16.8267 7.16285 16.3333 8.37083 16.3333 9.8V29.4L10.9229 26.6438C10.1403 26.2694 9.38349 26.0993 8.65258 26.1333C7.9203 26.1674 7.21388 26.4736 6.53333 27.0521L4.79791 28.5323C4.01527 29.2128 3.64097 30.0724 3.67499 31.1109C3.70902 32.1481 4.08333 33.041 4.79791 33.7896L16.9458 46.4479C17.7285 47.2646 18.7153 47.8941 19.9062 48.3365C21.0972 48.7788 22.2542 49 23.3771 49V49ZM23.3771 44.9167C22.7986 44.9167 22.1691 44.8057 21.4885 44.5839C20.808 44.3634 20.2805 44.066 19.9062 43.6917L7.96249 31.2375L8.47291 30.7271L8.98333 30.2167L14.4958 33.024C15.8569 33.7045 17.184 33.6535 18.4771 32.8708C19.7701 32.0882 20.4167 30.9313 20.4167 29.4V9.8C20.4167 9.49375 20.5099 9.24671 20.6964 9.05887C20.8842 8.8724 21.1312 8.77917 21.4375 8.77917C21.7437 8.77917 21.9908 8.8724 22.1786 9.05887C22.3651 9.24671 22.4583 9.49375 22.4583 9.8V22.4583C22.4583 23.0368 22.6543 23.5214 23.0463 23.912C23.437 24.304 23.9215 24.5 24.5 24.5C25.0785 24.5 25.5637 24.304 25.9557 23.912C26.3463 23.5214 26.5417 23.0368 26.5417 22.4583V5.10417C26.5417 4.79792 26.6349 4.55088 26.8214 4.36304C27.0092 4.17657 27.2562 4.08333 27.5625 4.08333C27.8687 4.08333 28.1158 4.17657 28.3036 4.36304C28.4901 4.55088 28.5833 4.79792 28.5833 5.10417V22.4583C28.5833 23.0368 28.7793 23.5214 29.1713 23.912C29.562 24.304 30.0465 24.5 30.625 24.5C31.2035 24.5 31.6887 24.304 32.0807 23.912C32.4713 23.5214 32.6667 23.0368 32.6667 22.4583V6.94167C32.6667 6.66944 32.7606 6.43125 32.9484 6.22708C33.1349 6.02292 33.3812 5.92083 33.6875 5.92083C33.9937 5.92083 34.2408 6.02292 34.4286 6.22708C34.6151 6.43125 34.7083 6.66944 34.7083 6.94167V22.4583C34.7083 23.0368 34.9043 23.5214 35.2963 23.912C35.687 24.304 36.1715 24.5 36.75 24.5C37.3285 24.5 37.813 24.304 38.2037 23.912C38.5957 23.5214 38.7917 23.0368 38.7917 22.4583V12.5563C38.7917 12.25 38.8856 12.003 39.0734 11.8151C39.2599 11.6287 39.5062 11.5354 39.8125 11.5354C40.1187 11.5354 40.3658 11.6287 40.5536 11.8151C40.7401 12.003 40.8333 12.25 40.8333 12.5563V40.8333C40.8333 41.9563 40.4338 42.9179 39.6349 43.7182C38.8345 44.5172 37.8729 44.9167 36.75 44.9167H23.3771Z" fill="#545454"/>
</g>
<defs>
<clipPath id="clip0_18_63">
<rect width="49" height="49" fill="white"/>
</clipPath>
</defs>
</svg>
